# xmcd
#
# Track frame offsets: 
#        150
#        4306
#        16236
#        27389
#        35360
#        47636
#        59545
#        73445
#        86156
#        98624
#        111003
#        125247
#        137958
#        149754
#        161588
#        174378
#        189319
#        203115
#        224112
#
# Disc length: 3213 seconds
#
# Revision: 4
# Processed by: cddbd v1.5.2PL0 Copyright (c) Steve Scherf et al.
# Submitted via: ExactAudioCopy v1.1
#
DISCID=250c8b13
DTITLE=Various Artist - Collection Of Various Interpretions Of Fever, A
DYEAR=2003
DGENRE=Soul
TTITLE0=Cilla Black - Fever
TTITLE1=The Manhattans - Fever
TTITLE2=Buddy Greco - Fever
TTITLE3=The Knockouts - Fever
TTITLE4=Patti Drew - Fever
TTITLE5=Quincy Jones - Fever
TTITLE6=James Brown - Fever
TTITLE7=Cindy Ellis - Fever
TTITLE8=Sarah Vaughan - Fever
TTITLE9=The McCoys - Fever
TTITLE10=Veda Brown - Fever
TTITLE11=Caterina Valente - Fever
TTITLE12=Emile Ford and The Checkmates Ltd. - Fever
TTITLE13=Sharon Cash - Fever
TTITLE14=Little Milton - Fever
TTITLE15=The Hassles - Fever
TTITLE16=Timi Yuro - Fever
TTITLE17=Johnny Watson - Fever
TTITLE18=Otis Blackwell - Fever
EXTD=YEAR: 2003
EXTT0=
EXTT1=
EXTT2=
EXTT3=
EXTT4=
EXTT5=
EXTT6=
EXTT7=
EXTT8=
EXTT9=
EXTT10=
EXTT11=
EXTT12=
EXTT13=
EXTT14=
EXTT15=
EXTT16=
EXTT17=
EXTT18=
PLAYORDER=
